<?xml version="1.0" encoding="UTF-8" standalone="no"?>
<!-- Created with Inkscape (http://www.inkscape.org/) -->

<svg
   xmlns:dc="http://purl.org/dc/elements/1.1/"
   xmlns:cc="http://creativecommons.org/ns#"
   xmlns:rdf="http://www.w3.org/1999/02/22-rdf-syntax-ns#"
   xmlns:svg="http://www.w3.org/2000/svg"
   xmlns="http://www.w3.org/2000/svg"
   xmlns:sodipodi="http://sodipodi.sourceforge.net/DTD/sodipodi-0.dtd"
   xmlns:inkscape="http://www.inkscape.org/namespaces/inkscape"
   id="svg2"
   version="1.1"
   inkscape:version="0.48.2 r9819"
   width="198.425"
   height="70.8625"
   xml:space="preserve"
   sodipodi:docname="kuleuven_CMYK_logo.eps"><metadata
     id="metadata8"><rdf:RDF><cc:Work
         rdf:about=""><dc:format>image/svg+xml</dc:format><dc:type
           rdf:resource="http://purl.org/dc/dcmitype/StillImage" /><dc:title></dc:title></cc:Work></rdf:RDF></metadata><defs
     id="defs6"><clipPath
       clipPathUnits="userSpaceOnUse"
       id="clipPath18"><path
         d="m 0,0 1587,0 0,566.934 -1587,0 L 0,0 z"
         id="path20" /></clipPath></defs><sodipodi:namedview
     pagecolor="#ffffff"
     bordercolor="#666666"
     borderopacity="1"
     objecttolerance="10"
     gridtolerance="10"
     guidetolerance="10"
     inkscape:pageopacity="0"
     inkscape:pageshadow="2"
     inkscape:window-width="640"
     inkscape:window-height="480"
     id="namedview4"
     showgrid="false"
     inkscape:zoom="1.7840494"
     inkscape:cx="99.212502"
     inkscape:cy="35.431252"
     inkscape:window-x="0"
     inkscape:window-y="0"
     inkscape:window-maximized="0"
     inkscape:current-layer="g10" /><g
     id="g10"
     inkscape:groupmode="layer"
     inkscape:label="ink_ext_XXXXXX"
     transform="matrix(1.25,0,0,-1.25,0,70.8625)"><g
       id="g12"
       transform="scale(0.1,0.1)"><g
         id="g14"><g
           id="g16"
           clip-path="url(#clipPath18)"><path
             d="m 56.6914,0 1530.31,0 0,510.238 -1530.31,0 0,-510.238 z"
             style="fill:#123c75;fill-opacity:1;fill-rule:nonzero;stroke:none"
             id="path22" /><path
             d="M 0,566.934 0,0 l 56.6914,0 0,510.238 1530.7086,0 0,56.696 -1587.4,0"
             style="fill:#6ac2ee;fill-opacity:1;fill-rule:nonzero;stroke:none"
             id="path24" /><path
             d="m 170.078,340.16 50.711,0 0,-58.582 0.473,0 45.191,58.582 62.473,0 -59.707,-66.457 69.394,-103.625 -63.175,0 -40.575,66.223 -14.074,-15.938 0,-50.285 -50.711,0 0,170.082"
             style="fill:#ffffff;fill-opacity:1;fill-rule:nonzero;stroke:none"
             id="path26" /><path
             d="m 490.793,235.879 c 0,-47.129 -24.672,-69.766 -74.934,-69.766 -50.254,0 -75.156,22.637 -75.156,69.766 l 0,104.281 50.723,0 0,-92.621 c 0,-17.383 0,-39.043 24.668,-39.043 23.984,0 23.984,21.66 23.984,39.043 l 0,92.621 50.715,0 0,-104.281"
             style="fill:#ffffff;fill-opacity:1;fill-rule:nonzero;stroke:none"
             id="path28" /><path
             d="m 565.18,340.16 50.734,0 0,-126.469 71.559,0 0,-43.613 -122.293,0 0,170.082"
             style="fill:#ffffff;fill-opacity:1;fill-rule:nonzero;stroke:none"
             id="path30" /><path
             d="m 703.008,340.16 134.988,0 0,-43.578 -84.734,0 0,-21.219 76.965,0 0,-40.492 -76.965,0 0,-21.18 87.226,0 0,-43.613 -137.48,0 0,170.082"
             style="fill:#ffffff;fill-opacity:1;fill-rule:nonzero;stroke:none"
             id="path32" /><path
             d="m 1003.61,235.879 c 0,-47.129 -24.665,-69.766 -74.919,-69.766 -50.273,0 -75.156,22.637 -75.156,69.766 l 0,104.281 50.703,0 0,-92.621 c 0,-17.383 0,-39.043 24.668,-39.043 23.985,0 23.985,21.66 23.985,39.043 l 0,92.621 50.719,0 0,-104.281"
             style="fill:#ffffff;fill-opacity:1;fill-rule:nonzero;stroke:none"
             id="path34" /><path
             d="m 1116.61,170.078 -56.72,0 -49.12,170.082 51.19,0 26.98,-103.137 0.46,0 26.51,103.137 52.11,0 -51.41,-170.082"
             style="fill:#ffffff;fill-opacity:1;fill-rule:nonzero;stroke:none"
             id="path36" /><path
             d="m 1175.18,340.16 134.96,0 0,-43.578 -84.73,0 0,-21.219 76.97,0 0,-40.492 -76.97,0 0,-21.18 87.25,0 0,-43.613 -137.48,0 0,170.082"
             style="fill:#ffffff;fill-opacity:1;fill-rule:nonzero;stroke:none"
             id="path38" /><path
             d="m 1325.77,340.16 51.88,0 47.95,-90.98 0.46,0 0,90.98 47.95,0 0,-170.082 -49.33,0 -50.49,92.918 -0.47,0 0,-92.918 -47.95,0 0,170.082"
             style="fill:#ffffff;fill-opacity:1;fill-rule:nonzero;stroke:none"
             id="path40" /></g></g></g></g></svg>